<svg width="73" height="73" viewBox="0 0 73 73" fill="none" xmlns="http://www.w3.org/2000/svg">
<path d="M59.3125 9.125H13.6875C11.1677 9.125 9.125 11.1677 9.125 13.6875V59.3125C9.125 61.8324 11.1677 63.875 13.6875 63.875H59.3125C61.8324 63.875 63.875 61.8324 63.875 59.3125V13.6875C63.875 11.1677 61.8324 9.125 59.3125 9.125Z" stroke="#2C2C2C" stroke-width="2"/>
<path d="M24.3335 22.8125V50.1875" stroke="#2C2C2C" stroke-width="2" stroke-linecap="round" stroke-linejoin="round"/>
<path d="M48.6665 25.8541V50.1875" stroke="#2C2C2C" stroke-width="2" stroke-linecap="round" stroke-linejoin="round"/>
<path fill-rule="evenodd" clip-rule="evenodd" d="M42.5833 50.1875C38.7813 50.1875 36.5 47.7541 36.5 44.1041C36.5 40.4541 38.7813 38.0208 42.5833 38.0208C46.3854 38.0208 48.6667 38.0208 48.6667 38.0208V50.1875H42.5833Z" stroke="#2C2C2C" stroke-width="2" stroke-linecap="round" stroke-linejoin="round"/>
</svg>
