<svg width="73" height="73" viewBox="0 0 73 73" fill="none" xmlns="http://www.w3.org/2000/svg">
<path d="M59.3125 9.125H13.6875C11.1677 9.125 9.125 11.1677 9.125 13.6875V59.3125C9.125 61.8324 11.1677 63.875 13.6875 63.875H59.3125C61.8324 63.875 63.875 61.8324 63.875 59.3125V13.6875C63.875 11.1677 61.8324 9.125 59.3125 9.125Z" stroke="#2C2C2C" stroke-width="2"/>
<path d="M21.2915 22.8125V50.1875" stroke="#2C2C2C" stroke-width="2" stroke-linecap="round" stroke-linejoin="round"/>
<path fill-rule="evenodd" clip-rule="evenodd" d="M24.3332 38.0208C28.8957 38.0208 34.979 36.8042 34.979 30.4167C34.979 24.0292 28.8957 22.8125 24.3332 22.8125H21.2915V38.0208H24.3332Z" stroke="#2C2C2C" stroke-width="2" stroke-linecap="round" stroke-linejoin="round"/>
<path d="M51.7085 31.9749C50.1877 31.9749 42.5835 31.2175 42.5835 36.5187C42.5835 41.8197 51.7085 40.3053 51.7085 45.6063C51.7085 50.9075 42.5835 50.1501 42.5835 50.1501" stroke="#2C2C2C" stroke-width="2" stroke-linecap="round" stroke-linejoin="round"/>
</svg>
