<svg width="73" height="73" viewBox="0 0 73 73" fill="none" xmlns="http://www.w3.org/2000/svg">
<path d="M26.125 22L17 49.375" stroke="#2C2C2C" stroke-width="2" stroke-linecap="round" stroke-linejoin="round"/>
<path d="M26.125 22L35.25 49.375" stroke="#2C2C2C" stroke-width="2" stroke-linecap="round" stroke-linejoin="round"/>
<path d="M20.043 40.25H32.2096" stroke="#2C2C2C" stroke-width="2" stroke-linecap="round" stroke-linejoin="round"/>
<path d="M59.3125 9.125H13.6875C11.1677 9.125 9.125 11.1677 9.125 13.6875V59.3125C9.125 61.8324 11.1677 63.875 13.6875 63.875H59.3125C61.8324 63.875 63.875 61.8324 63.875 59.3125V13.6875C63.875 11.1677 61.8324 9.125 59.3125 9.125Z" stroke="#2C2C2C" stroke-width="2"/>
<path d="M42.9996 38.5C44.4996 35 48.0293 36.0223 48.9302 36.0223C50.9786 37.5092 53.8464 40.8417 48.9302 42.2763C44.0139 43.7109 42.7528 40.277 42.9996 38.5ZM42.9996 38.5C42.4998 39.5 42.615 42.1583 43.5253 44.6672C44.5012 47.3571 45.501 48 48.9302 47.9548C51.7237 47.918 52.8045 47.4567 53.0019 47.3571" stroke="#2C2C2C" stroke-width="2" stroke-linecap="round" stroke-linejoin="round"/>
</svg>
