<svg width="73" height="73" viewBox="0 0 73 73" fill="none" xmlns="http://www.w3.org/2000/svg">
<path d="M59.3125 9.125H13.6875C11.1677 9.125 9.125 11.1677 9.125 13.6875V59.3125C9.125 61.8323 11.1677 63.875 13.6875 63.875H59.3125C61.8323 63.875 63.875 61.8323 63.875 59.3125V13.6875C63.875 11.1677 61.8323 9.125 59.3125 9.125Z" stroke="#2C2C2C" stroke-width="2" stroke-linejoin="round"/>
<path d="M27.375 27.375C27.375 24.8551 29.4176 22.8125 31.9375 22.8125H36.5V31.9375H31.9375C29.4176 31.9375 27.375 29.8949 27.375 27.375Z" stroke="#2C2C2C" stroke-width="2" stroke-linejoin="round"/>
<path d="M27.375 36.5C27.375 33.9801 29.4176 31.9375 31.9375 31.9375H36.5V41.0625H31.9375C29.4176 41.0625 27.375 39.0199 27.375 36.5Z" stroke="#2C2C2C" stroke-width="2" stroke-linejoin="round"/>
<path d="M27.375 45.625C27.375 43.1051 29.4176 41.0625 31.9375 41.0625H36.5V45.625C36.5 48.1449 34.4574 50.1875 31.9375 50.1875C29.4176 50.1875 27.375 48.1449 27.375 45.625Z" stroke="#2C2C2C" stroke-width="2" stroke-linejoin="round"/>
<path d="M36.5 22.8125H41.0625C43.5824 22.8125 45.625 24.8551 45.625 27.375C45.625 29.8949 43.5824 31.9375 41.0625 31.9375H36.5V22.8125Z" stroke="#2C2C2C" stroke-width="2" stroke-linejoin="round"/>
<path d="M36.5 36.5C36.5 33.9801 38.5426 31.9375 41.0625 31.9375C43.5824 31.9375 45.625 33.9801 45.625 36.5C45.625 39.0199 43.5824 41.0625 41.0625 41.0625C38.5426 41.0625 36.5 39.0199 36.5 36.5Z" stroke="#2C2C2C" stroke-width="2" stroke-linejoin="round"/>
</svg>
